<svg width="56" height="55" viewBox="0 0 56 55" fill="none" xmlns="http://www.w3.org/2000/svg">
<rect x="0.876465" y="16.3243" width="41.8901" height="41.2223" rx="4" transform="rotate(-21.4919 0.876465 16.3243)" fill="#D0FD5F"/>
<path d="M0.724724 25.3368L4.12107 23.9995L9.69112 38.1458L9.84692 38.0844L10.9494 34.3033L13.1144 28.3762L17.0716 26.8181L13.8666 35.314L24.1369 42.7509L20.0862 44.3459L12.4008 38.4465L11.1143 41.7602L13.2 47.0573L9.80366 48.3946L0.724724 25.3368ZM18.7829 26.1442L22.0858 24.8438L26.4118 30.9862L30.2932 36.5479L30.3867 36.5111L29.6524 29.7102L28.9408 22.1446L31.9944 20.9423L36.6632 26.9498L40.7939 32.4133L40.8874 32.3765L39.9037 25.6738L38.9117 18.2186L42.0588 16.9794L44.0763 34.8998L40.2437 36.4089L35.2172 29.8585L32.1173 25.8245L32.0549 25.849L32.5687 30.9013L33.3264 39.1326L29.5873 40.6048L18.7829 26.1442ZM52.8437 31.8796C52.0751 32.1822 51.4261 32.2098 50.8968 31.9623C50.3593 31.6941 49.972 31.2588 49.7348 30.6564L49.5507 30.189C49.3135 29.5866 49.3042 29.0144 49.5227 28.4725C49.733 27.9098 50.2225 27.4772 50.9911 27.1745C51.7597 26.8719 52.4127 26.8547 52.9502 27.1229C53.4795 27.3704 53.8628 27.7953 54.1 28.3977L54.284 28.8651C54.5212 29.4675 54.5346 30.0501 54.3243 30.6128C54.1058 31.1547 53.6123 31.577 52.8437 31.8796Z" fill="#2C2C2C"/>
</svg>
